<?xml version="1.0" encoding="UTF-8"?>
<svg version="1.1" xmlns="http://www.w3.org/2000/svg" width="240" height="193">
<path d="M0 0 C3.38440957 2.77492903 5.81530435 5.89232745 7.78125 9.82421875 C8.37550781 9.47488281 8.96976562 9.12554687 9.58203125 8.765625 C16.37369197 5.0370772 23.29787187 2.31349212 31.078125 4.45703125 C36.98242929 7.09843054 40.35010225 11.02155441 43.28125 16.76171875 C44.09262663 21.7314006 42.11914246 24.86707321 39.4140625 28.82421875 C35.62256699 33.69619225 35.62256699 33.69619225 31.90625 34.26171875 C31.205 34.11734375 30.50375 33.97296875 29.78125 33.82421875 C30.30286929 29.96423599 31.09071515 28.5147536 33.78125 25.82421875 C35.0439488 22.48708621 34.87698059 21.09013706 33.65625 17.69921875 C31.14830925 13.85370961 28.72323296 12.57943434 24.53125 10.94921875 C20.24601356 10.75443528 16.71556704 12.23906742 12.78125 13.82421875 C11.811875 14.19546875 10.8425 14.56671875 9.84375 14.94921875 C7.04470427 17.49380578 6.48964125 19.75530158 5.87890625 23.4375 C5.55094381 31.45290208 11.54109885 38.49140679 15.78125 44.82421875 C16.255625 45.54222656 16.73 46.26023438 17.21875 47 C18.73068948 49.28079507 20.25539975 51.55270412 21.78125 53.82421875 C24.72470909 58.21250893 27.65903192 62.6066884 30.578125 67.01123047 C31.67306844 68.66120003 32.77372423 70.30737521 33.875 71.953125 C42.25215307 84.71408486 42.25215307 84.71408486 41.71875 91.94921875 C39.19861547 102.36577481 30.0363098 108.53801361 21.46875 114.13671875 C16.20370171 117.29574772 11.41813604 118.96551737 5.4296875 120.17578125 C2.89823683 120.79557596 1.20981427 121.55927503 -0.96875 122.94921875 C-7.49108766 126.71210586 -13.5555676 126.04508201 -20.68359375 124.53515625 C-28.14152328 122.44371839 -32.40898546 116.51195618 -37.21875 110.82421875 C-38.38524207 109.46990168 -39.55188893 108.11571791 -40.71875 106.76171875 C-41.54375 105.79234375 -42.36875 104.82296875 -43.21875 103.82421875 C-46.95490494 105.23037161 -50.34698951 106.96868436 -53.84375 108.88671875 C-60.58273804 112.24795421 -66.5326043 113.96105522 -73.98828125 112.15234375 C-78.93731106 110.38431553 -82.6104503 108.5872008 -85.21875 103.82421875 C-86.39660976 100.13359151 -86.43510177 98.41317636 -85.09375 94.76171875 C-81.11527077 88.52876795 -75.98336484 84.67309467 -69.21875 81.82421875 C-60.80595487 80.60053946 -52.90876086 83.97396088 -46.21875 88.82421875 C-45.55875 88.82421875 -44.89875 88.82421875 -44.21875 88.82421875 C-43.56935264 86.45014283 -42.92414947 84.07505485 -42.28125 81.69921875 C-42.00764648 80.70148438 -42.00764648 80.70148438 -41.72851562 79.68359375 C-40.66792494 75.74976648 -39.81512868 71.8544831 -39.21875 67.82421875 C-40.394375 68.31921875 -40.394375 68.31921875 -41.59375 68.82421875 C-49.90489292 71.11694783 -58.46850703 70.24987473 -66.15625 66.32421875 C-68.21875 64.82421875 -68.21875 64.82421875 -69.21875 62.82421875 C-69.59375 59.94921875 -69.59375 59.94921875 -69.21875 56.82421875 C-66.90625 54.38671875 -66.90625 54.38671875 -64.21875 52.82421875 C-62.73375 53.31921875 -62.73375 53.31921875 -61.21875 53.82421875 C-60.950625 54.77296875 -60.6825 55.72171875 -60.40625 56.69921875 C-59.47691911 59.95040312 -59.47691911 59.95040312 -56.84375 61.69921875 C-51.61110724 63.32314237 -44.29712391 64.3634057 -39.21875 61.82421875 C-38.79833722 59.74381954 -38.79833722 59.74381954 -38.69140625 57.22265625 C-38.58928833 55.78575439 -38.58928833 55.78575439 -38.48510742 54.31982422 C-38.41783447 53.29002441 -38.35056152 52.26022461 -38.28125 51.19921875 C-35.56876088 16.06937465 -35.56876088 16.06937465 -24.0859375 4.4140625 C-17.55382054 -1.14780278 -8.12789941 -4.3072143 0 0 Z M-18.21875 6.82421875 C-22.15351326 10.96036753 -23.45948471 14.93618 -24.84375 20.32421875 C-25.05539795 21.12448486 -25.2670459 21.92475098 -25.48510742 22.74926758 C-28.52758128 34.55851221 -29.52113083 45.67858855 -29.21875 57.82421875 C-14.74082047 49.1571589 -5.7237373 35.58925978 -1.57421875 19.29296875 C-0.99017612 15.23676062 -1.85089008 11.65422652 -3.21875 7.82421875 C-5.41608658 5.31297695 -6.96275349 4.90047303 -10.15625 3.94921875 C-13.93992264 3.79478313 -15.26773223 4.49446788 -18.21875 6.82421875 Z M-1.21875 36.82421875 C-2.40811403 38.47476475 -3.5692884 40.14563991 -4.71875 41.82421875 C-10.35738873 49.62233614 -16.12662836 54.80837985 -24.65625 59.26171875 C-28.66807227 61.41456053 -28.66807227 61.41456053 -31.35546875 64.91015625 C-31.86585216 67.2375046 -32.07822126 69.44694095 -32.21875 71.82421875 C-32.4828832 73.45392059 -32.7754013 75.07923463 -33.09375 76.69921875 C-33.25230469 77.52550781 -33.41085938 78.35179687 -33.57421875 79.203125 C-34.51837587 83.04269729 -35.98871134 86.63787186 -37.51171875 90.28125 C-38.33100631 93.22796936 -38.11006709 94.92248646 -37.21875 97.82421875 C-35.88496425 99.65969865 -35.88496425 99.65969865 -34.21875 100.82421875 C-33.55875 100.82421875 -32.89875 100.82421875 -32.21875 100.82421875 C-31.96222656 101.38367188 -31.70570313 101.943125 -31.44140625 102.51953125 C-27.32199476 110.2845561 -21.21258493 117.03692982 -13.21875 120.82421875 C-8.50968148 122.23863322 -4.62976471 122.16757031 -0.21875 119.82421875 C-3.16761591 117.69839552 -3.16761591 117.69839552 -6.65625 116.51171875 C-10.46168925 114.70914226 -11.93304279 113.29510748 -14.21875 109.82421875 C-14.63125 109.20546875 -15.04375 108.58671875 -15.46875 107.94921875 C-17.07990917 103.38426776 -16.66601825 99.26729884 -14.78125 94.88671875 C-10.76463136 87.56564789 -4.02422981 82.48140337 3.78125 79.82421875 C3.78125 80.81421875 3.78125 81.80421875 3.78125 82.82421875 C3.245 83.05109375 2.70875 83.27796875 2.15625 83.51171875 C-1.63255497 85.60553202 -4.96567507 88.17243817 -7.59375 91.63671875 C-9.03207385 96.67085224 -8.88426117 100.43995552 -6.65625 105.07421875 C-2.91152553 109.2990361 0.08147521 111.49775142 5.65625 112.171875 C11.79617664 112.34839789 16.38263803 111.76891619 21.78125 108.82421875 C21.78125 108.16421875 21.78125 107.50421875 21.78125 106.82421875 C22.52375 106.59734375 23.26625 106.37046875 24.03125 106.13671875 C28.49689865 104.00538644 30.21961552 101.06958216 32.21875 96.63671875 C33.88109111 85.36974015 25.69591816 75.73462793 19.78125 66.82421875 C19.03415771 65.69209961 19.03415771 65.69209961 18.27197266 64.53710938 C15.26044181 59.97714735 12.22268901 55.4354417 9.17236328 50.90136719 C7.86370186 48.9473322 6.56754033 46.98579292 5.27734375 45.01953125 C4.55675781 43.92382812 3.83617187 42.828125 3.09375 41.69921875 C2.47113281 40.74789062 1.84851563 39.7965625 1.20703125 38.81640625 C0.73652344 38.15898438 0.26601562 37.5015625 -0.21875 36.82421875 C-0.54875 36.82421875 -0.87875 36.82421875 -1.21875 36.82421875 Z M-75.21875 90.82421875 C-76.78367215 93.52726609 -77.21875 95.27176988 -77.21875 98.38671875 C-75.69291365 102.10594484 -73.8087208 103.09333997 -70.21875 104.82421875 C-64.14563617 105.81619741 -59.60982204 104.57260842 -54.21875 101.82421875 C-53.435 101.51484375 -52.65125 101.20546875 -51.84375 100.88671875 C-50.00897747 99.93861202 -50.00897747 99.93861202 -49.6171875 97.7578125 C-49.48570313 97.11972656 -49.35421875 96.48164063 -49.21875 95.82421875 C-56.46648285 90.54687715 -67.03025086 83.1475008 -75.21875 90.82421875 Z " fill="#F36CBD" transform="translate(165.21875,32.17578125)"/>
<path d="M0 0 C4.29714772 2.52340294 7.40935653 5.2280696 9 10 C10.30674899 22.48909285 5.85086465 32.81020385 -1 43 C-1.42796875 43.68707031 -1.8559375 44.37414062 -2.296875 45.08203125 C-7.90830018 53.44965644 -17.0771154 59.5385577 -26 64 C-26.66 64 -27.32 64 -28 64 C-28.08636719 65.06476563 -28.17273438 66.12953125 -28.26171875 67.2265625 C-29.09758977 76.20489846 -30.57743964 83.71252488 -34.171875 92.046875 C-35.22467107 94.92288632 -35.22467107 94.92288632 -34.453125 97.578125 C-32.66262506 100.56229157 -30.52386398 102.60072733 -28 105 C-26.97264516 106.1391187 -25.95625121 107.28818891 -24.94921875 108.4453125 C-24.14774414 109.34830078 -24.14774414 109.34830078 -23.33007812 110.26953125 C-22.23625833 111.50511842 -21.15282439 112.74997927 -20.08007812 114.00390625 C-16.08272431 118.45604882 -12.78698617 120.39151461 -7 122 C-2.364879 121.76025236 1.65398748 120.59000458 6 119 C4.798203 122.60539099 3.2987463 123.4056422 0.015625 125.140625 C-7.21493196 128.2234206 -14.79697073 126.99553934 -21.9453125 124.25390625 C-27.11880642 121.64395976 -30.38755103 117.41433325 -34 113 C-35.30742068 111.49557073 -36.61975218 109.9953919 -37.9375 108.5 C-38.95833333 107.33333333 -39.97916667 106.16666667 -41 105 C-44.64093467 106.32397624 -47.85385965 108.00610394 -51.15625 110 C-57.57070267 113.47902518 -64.60122664 115.03211442 -71.796875 113.34375 C-76.673248 111.55478476 -80.54470636 109.79898302 -83 105 C-83.74300206 100.07761137 -82.88645024 96.22861458 -80.51953125 91.9296875 C-76.5787264 86.92516925 -70.6156383 83.94096279 -64.375 83 C-56.68566309 82.63512813 -50.65648612 85.43402529 -44 89 C-44 89.66 -44 90.32 -44 91 C-43.01 91 -42.02 91 -41 91 C-40.81824219 90.00033203 -40.81824219 90.00033203 -40.6328125 88.98046875 C-38.81640625 78.99023438 -38.81640625 78.99023438 -37 69 C-38.175625 69.495 -38.175625 69.495 -39.375 70 C-47.59269628 72.2669507 -55.51426295 71.16542252 -63.375 68.0625 C-65 67 -65 67 -67 64 C-67.4375 61.0625 -67.4375 61.0625 -67 58 C-64.6875 55.5625 -64.6875 55.5625 -62 54 C-60.515 54.495 -60.515 54.495 -59 55 C-58.7525 55.94875 -58.505 56.8975 -58.25 57.875 C-57.25745443 61.19904772 -57.25745443 61.19904772 -54.25 62.875 C-48.49845913 64.97204369 -42.01570084 64.2252759 -36 64 C-36.02320313 63.34257813 -36.04640625 62.68515625 -36.0703125 62.0078125 C-36.40019239 44.61842988 -35.37144022 20.08622591 -22.8984375 6.6328125 C-16.0423715 0.73603146 -9.13114338 -1.9920245 0 0 Z M-16 8 C-19.57202143 12.62961993 -21.18096157 17.00386825 -22.625 22.5625 C-22.83664795 23.3575293 -23.0482959 24.15255859 -23.26635742 24.97167969 C-26.22771738 36.39357484 -27.31862259 47.19326307 -27 59 C-14.20074525 51.44488435 -4.24648217 39.3676314 0 25 C1.13040848 19.41396687 1.82766063 14.16355419 -1 9 C-6.42153325 4.5213421 -10.24505739 3.68379304 -16 8 Z M-74 93 C-74.85413028 96.19421324 -74.85567489 98.80587112 -74 102 C-70.79187765 105.46139517 -67.82075324 106.2741244 -63.25 106.5625 C-57.61247442 106.33152399 -52.48695039 104.44452757 -48 101 C-47.16570643 98.92078389 -47.16570643 98.92078389 -47 97 C-54.84666395 91.28655458 -65.77882239 83.91343528 -74 93 Z " fill="#F56ABF" transform="translate(100,31)"/>
<path d="M0 0 C0.99 0.66 1.98 1.32 3 2 C2.86335938 2.67804688 2.72671875 3.35609375 2.5859375 4.0546875 C2.16261858 6.18257062 1.75285103 8.31316499 1.3515625 10.4453125 C0.99191406 12.26675781 0.99191406 12.26675781 0.625 14.125 C0.39039062 15.34445313 0.15578125 16.56390625 -0.0859375 17.8203125 C-0.98253377 20.93924139 -1.52577802 22.04151294 -4 24 C-4.433125 24.53625 -4.86625 25.0725 -5.3125 25.625 C-7.7014776 27.57157434 -9.99274169 27.66586019 -13 28 C-12.125 24.125 -12.125 24.125 -11 23 C-10.92851801 21.64756083 -10.91600546 20.29165633 -10.9375 18.9375 C-10.958125 17.638125 -10.97875 16.33875 -11 15 C-12.010625 14.9175 -13.02125 14.835 -14.0625 14.75 C-18.37786916 14.15993932 -21.34738197 12.31083998 -25 10 C-24.67 9.34 -24.34 8.68 -24 8 C-18.28315384 8.36841897 -14.08128189 9.16393569 -9 12 C-7.67444552 12.36303474 -6.34177528 12.70246348 -5 13 C-4.83564453 11.84371094 -4.83564453 11.84371094 -4.66796875 10.6640625 C-4.43013672 9.15972656 -4.43013672 9.15972656 -4.1875 7.625 C-4.03667969 6.62726563 -3.88585937 5.62953125 -3.73046875 4.6015625 C-3 2 -3 2 0 0 Z " fill="#FA66C1" transform="translate(64,109)"/>
<path d="M0 0 C2.61955638 1.80094501 3.5534084 3.54471208 5 6.375 C5.556875 7.40625 6.11375 8.4375 6.6875 9.5 C8.63982351 14.20003808 8.77929667 19.38597326 8 24.375 C6.67578125 26.66015625 6.67578125 26.66015625 5 28.375 C1.8125 29.125 1.8125 29.125 -1 29.375 C-0.85677897 27.83308846 -0.71028211 26.29148108 -0.5625 24.75 C-0.47742188 23.83347656 -0.39234375 22.91695312 -0.3046875 21.97265625 C0 19.375 0 19.375 0.8125 16.1875 C1.05346436 12.57303459 -0.15689257 11.01962489 -2.07421875 8.0546875 C-3.32859341 5.77881786 -3.30839551 3.91926294 -3 1.375 C-3.66 1.045 -4.32 0.715 -5 0.375 C-2 -0.625 -2 -0.625 0 0 Z " fill="#F967C2" transform="translate(197,105.625)"/>
<path d="M0 0 C2.0625 0.4375 2.0625 0.4375 4 1 C3.95875 2.134375 3.9175 3.26875 3.875 4.4375 C3.875 10.67324269 5.04640322 16.48992869 8 22 C9.65 22 11.3 22 13 22 C11 24 11 24 9.0546875 24.1953125 C7.03645833 24.13020833 5.01822917 24.06510417 3 24 C2.67 23.01 2.34 22.02 2 21 C1.01 20.67 0.02 20.34 -1 20 C-3.84073184 15.5810838 -4.5580789 12.20873641 -4 7 C-1.77419355 1.77419355 -1.77419355 1.77419355 0 0 Z " fill="#F669C0" transform="translate(152,124)"/>
<path d="M0 0 C0.66 0 1.32 0 2 0 C1.93039063 1.35544922 1.93039063 1.35544922 1.859375 2.73828125 C1.82328125 3.91777344 1.7871875 5.09726563 1.75 6.3125 C1.68039063 8.07013672 1.68039063 8.07013672 1.609375 9.86328125 C1.66651428 13.08222804 1.66651428 13.08222804 3.953125 14.79296875 C4.62859375 15.19128906 5.3040625 15.58960938 6 16 C6.33 16.66 6.66 17.32 7 18 C7.33 17.34 7.66 16.68 8 16 C8.33 16.33 8.66 16.66 9 17 C11.32817964 17.36760731 13.6618385 17.70241581 16 18 C14.9375 20 14.9375 20 13 22 C8.44551506 22.50605388 5.11266723 21.99402048 1 20 C1 19.34 1 18.68 1 18 C0.4225 17.979375 -0.155 17.95875 -0.75 17.9375 C-4.38390121 16.4233745 -5.24850416 13.44043825 -7 10 C-6.5875 9.649375 -6.175 9.29875 -5.75 8.9375 C-3.29237593 6.21655906 -1.75948115 3.21560348 0 0 Z " fill="#FC67C3" transform="translate(86,121)"/>
<path d="M0 0 C0.33 3.3 0.66 6.6 1 10 C1.66 10 2.32 10 3 10 C2.57742724 11.4835001 2.13643678 12.96176424 1.6875 14.4375 C1.44386719 15.26121094 1.20023438 16.08492187 0.94921875 16.93359375 C0.63597656 17.61550781 0.32273437 18.29742187 0 19 C-0.99 19.33 -1.98 19.66 -3 20 C-3 20.66 -3 21.32 -3 22 C-3.66 22 -4.32 22 -5 22 C-5.33 22.66 -5.66 23.32 -6 24 C-7.25664978 21.09399739 -8 19.20395416 -8 16 C-7.67 15.67 -7.34 15.34 -7 15 C-6.70467805 13.42105096 -6.43862991 11.83657773 -6.1875 10.25 C-4.24910458 0 -4.24910458 0 0 0 Z " fill="#FC65C2" transform="translate(71,81)"/>
<path d="M0 0 C2.01531594 1.63144624 3.89313934 3.20071038 5.625 5.125 C5.295 5.785 4.965 6.445 4.625 7.125 C3.6040625 5.9803125 3.6040625 5.9803125 2.5625 4.8125 C-1.56509311 1.03619141 -4.6921553 -0.9148263 -10.26953125 -0.83203125 C-12.98886459 -0.59116604 -15.67564446 -0.2801474 -18.375 0.125 C-18.375 1.115 -18.375 2.105 -18.375 3.125 C-15.075 2.795 -11.775 2.465 -8.375 2.125 C-8.375 2.785 -8.375 3.445 -8.375 4.125 C-8.99246094 4.13917969 -9.60992187 4.15335938 -10.24609375 4.16796875 C-17.77358148 4.59189119 -23.95763377 6.70763377 -29.375 12.125 C-30.7021261 8.1436217 -30.44415913 4.27454773 -30.375 0.125 C-29.385 1.115 -28.395 2.105 -27.375 3.125 C-26.71113281 2.77566406 -26.04726562 2.42632812 -25.36328125 2.06640625 C-24.48027344 1.61136719 -23.59726563 1.15632813 -22.6875 0.6875 C-21.81738281 0.23503906 -20.94726562 -0.21742187 -20.05078125 -0.68359375 C-13.28078691 -3.69797079 -6.48129428 -3.60071904 0 0 Z " fill="#E96FB6" transform="translate(200.375,38.875)"/>
<path d="M0 0 C2.375 0.625 2.375 0.625 5 2 C6.3125 5.125 6.3125 5.125 7 8 C7.28875 7.401875 7.5775 6.80375 7.875 6.1875 C9 4 9 4 11 1 C12.72109005 4.71393116 13.1605008 6.44827849 12 10.4375 C9.9874653 14.42694931 7.43543864 18.11423154 4 21 C1.125 21.4375 1.125 21.4375 -1 21 C-0.47838071 17.14001724 0.30946515 15.69053485 3 13 C4.31808788 9.51648204 4.12270537 8.28445336 2.625 4.8125 C2.08875 3.884375 1.5525 2.95625 1 2 C0.67 1.34 0.34 0.68 0 0 Z " fill="#E96FB7" transform="translate(196,45)"/>
<path d="M0 0 C0.66 0.33 1.32 0.66 2 1 C3.70363822 1.22622081 5.41328701 1.40888473 7.125 1.5625 C8.03507812 1.64628906 8.94515625 1.73007812 9.8828125 1.81640625 C10.58148438 1.87699219 11.28015625 1.93757813 12 2 C12 2.66 12 3.32 12 4 C12.99 3.67 13.98 3.34 15 3 C15.33 3.66 15.66 4.32 16 5 C15.34 5.66 14.68 6.32 14 7 C12.9790625 6.2265625 12.9790625 6.2265625 11.9375 5.4375 C8.00965889 3.51536499 6.15054463 3.66589637 2 5 C-3.15739426 10.39727307 -4.92584994 16.94325481 -7 24 C-8.08203125 22.1484375 -8.08203125 22.1484375 -9 20 C-8.05988318 18.29883624 -7.05104383 16.63495707 -6 15 C-5.28598768 11.80604974 -5.28598768 11.80604974 -5 9 C-6.65 9.33 -8.3 9.66 -10 10 C-7.19372222 5.25091453 -4.74908547 2.80627778 0 0 Z " fill="#ED6EB8" transform="translate(84,33)"/>
<path d="M0 0 C2.31 0.33 4.62 0.66 7 1 C8.35384615 8.26153846 8.35384615 8.26153846 6.5625 12 C6.046875 12.66 5.53125 13.32 5 14 C5.99 14.33 6.98 14.66 8 15 C0.71428571 19.42857143 0.71428571 19.42857143 -4 20 C-3.67 18.68 -3.34 17.36 -3 16 C-3.91523437 15.93941406 -4.83046875 15.87882813 -5.7734375 15.81640625 C-6.96195313 15.73261719 -8.15046875 15.64882812 -9.375 15.5625 C-10.55835938 15.48128906 -11.74171875 15.40007812 -12.9609375 15.31640625 C-16 15 -16 15 -18 14 C-18 13.34 -18 12.68 -18 12 C-17.43539063 12.15726563 -16.87078125 12.31453125 -16.2890625 12.4765625 C-7.66382605 14.44888619 -1.46219856 12.4455651 6 8 C6 7.01 6 6.02 6 5 C4.03852126 3.61061923 2.03833424 2.2739589 0 1 C0 0.67 0 0.34 0 0 Z " fill="#F06EBC" transform="translate(46,123)"/>
<path d="M0 0 C0.4846875 0.34933594 0.969375 0.69867188 1.46875 1.05859375 C6.17948022 4.25645484 10.19820371 6.42135951 16 6 C19.10400892 5.23005083 22.04245508 4.21177188 25 3 C23.798203 6.60539099 22.2987463 7.4056422 19.015625 9.140625 C12.31513737 11.99742205 5.79584899 10.97634384 -1 9 C-2.35032957 8.36846831 -3.69027871 7.71193565 -5 7 C-2.39417629 6.06934867 -1.35801776 5.85082593 1.25 6.9375 C1.8275 7.288125 2.405 7.63875 3 8 C2.5359375 6.8553125 2.5359375 6.8553125 2.0625 5.6875 C1.32106407 3.81210323 0.63771783 1.91315348 0 0 Z " fill="#EE69BB" transform="translate(81,147)"/>
<path d="M0 0 C0 0.99 0 1.98 0 3 C-1.8984375 4.68359375 -1.8984375 4.68359375 -4.375 6.4375 C-7.54980985 8.69010318 -9.67338431 10.27830518 -11 14 C-11.46346074 18.02189655 -11.28613129 22.14160613 -10 26 C-11.70840281 24.36587557 -12.93453047 23.13093906 -14 21 C-13.99145799 18.94991745 -13.87005626 16.92090016 -13.7421875 14.875 C-13.86980469 13.946875 -13.86980469 13.946875 -14 13 C-14.99 12.34 -15.98 11.68 -17 11 C-6.55617978 0 -6.55617978 0 0 0 Z " fill="#E973B6" transform="translate(169,112)"/>
<path d="M0 0 C1.26026798 2.52053595 0.91874445 3.8542098 0.5625 6.625 C0.46066406 7.44226562 0.35882813 8.25953125 0.25390625 9.1015625 C0.17011719 9.72804688 0.08632812 10.35453125 0 11 C-0.66 11 -1.32 11 -2 11 C-1.979375 11.94875 -1.95875 12.8975 -1.9375 13.875 C-2 17 -2 17 -3 19 C-4.65 18.67 -6.3 18.34 -8 18 C-8 19.32 -8 20.64 -8 22 C-8.66 21.67 -9.32 21.34 -10 21 C-10.2295711 17.63295715 -10.33943529 15.58629732 -8.625 12.625 C-8.08875 12.08875 -7.5525 11.5525 -7 11 C-6.34 11 -5.68 11 -5 11 C-3.13448574 7.41247258 -1.57464072 3.72187807 0 0 Z " fill="#F769C1" transform="translate(103,54)"/>
<path d="M0 0 C10.53131749 5.96112311 10.53131749 5.96112311 12 10 C11 13 11 13 8.9375 14.1875 C8.298125 14.455625 7.65875 14.72375 7 15 C7 14.34 7 13.68 7 13 C6.01 12.67 5.02 12.34 4 12 C2.25 10.125 2.25 10.125 1 8 C1.33 7.01 1.66 6.02 2 5 C1.01 4.01 0.02 3.02 -1 2 C-0.67 1.34 -0.34 0.68 0 0 Z " fill="#FC66C3" transform="translate(128,134)"/>
<path d="M0 0 C0.33 0.66 0.66 1.32 1 2 C-3.95 2 -8.9 2 -14 2 C-13.67 2.66 -13.34 3.32 -13 4 C-11.02 4 -9.04 4 -7 4 C-6.67 4.66 -6.34 5.32 -6 6 C-7.216875 6.04125 -8.43375 6.0825 -9.6875 6.125 C-13.21271475 6.53199637 -14.75280133 7.31016733 -17 10.0625 C-17.66 11.031875 -18.32 12.00125 -19 13 C-19.33 11.68 -19.66 10.36 -20 9 C-21.32 9 -22.64 9 -24 9 C-17.9446768 -0.0829848 -10.23525213 -0.61411513 0 0 Z " fill="#E972B9" transform="translate(163,31)"/>
<path d="M0 0 C0.66 0 1.32 0 2 0 C3 3 3 3 2 6 C4.475 7.98 4.475 7.98 7 10 C6.34 10 5.68 10 5 10 C4.67 10.66 4.34 11.32 4 12 C1.33333333 12 -1.33333333 12 -4 12 C-4 11.34 -4 10.68 -4 10 C-4.66 10 -5.32 10 -6 10 C-6 10.66 -6 11.32 -6 12 C-6.66 12 -7.32 12 -8 12 C-7.67 11.01 -7.34 10.02 -7 9 C-6.34 9 -5.68 9 -5 9 C-4.896875 8.360625 -4.79375 7.72125 -4.6875 7.0625 C-4.460625 6.381875 -4.23375 5.70125 -4 5 C-3.01 4.67 -2.02 4.34 -1 4 C-0.26676204 1.98491642 -0.26676204 1.98491642 0 0 Z " fill="#FC66C3" transform="translate(122,123)"/>
<path d="M0 0 C0.33 0 0.66 0 1 0 C1.33 4.29 1.66 8.58 2 13 C6.455 9.535 6.455 9.535 11 6 C11.33 6.99 11.66 7.98 12 9 C12.66 9.66 13.32 10.32 14 11 C9.98745115 14.51098025 5.79016959 16.76537994 1 19 C1.33 17.68 1.66 16.36 2 15 C1.34 15 0.68 15 0 15 C0 10.05 0 5.1 0 0 Z " fill="#ED71BB" transform="translate(72,76)"/>
<path d="M0 0 C0.56847656 0.28875 1.13695312 0.5775 1.72265625 0.875 C6.78643712 3.30967261 10.38601033 4.47778636 16 4 C15.4375 5.9375 15.4375 5.9375 14 8 C8.07804168 9.72723784 2.89175802 8.43441191 -3 7 C-2.505 6.401875 -2.01 5.80375 -1.5 5.1875 C0.28276418 3.02970006 0.28276418 3.02970006 0 0 Z " fill="#E86DB6" transform="translate(146,149)"/>
<path d="M0 0 C1.1240625 0.05542969 2.248125 0.11085937 3.40625 0.16796875 C6.98392108 0.91331689 8.22128149 2.0255379 10.5 4.8125 C10.17 5.4725 9.84 6.1325 9.5 6.8125 C9.0875 6.3175 8.675 5.8225 8.25 5.3125 C6.37797662 3.37863908 6.37797662 3.37863908 2.5 3.8125 C2.17 4.4725 1.84 5.1325 1.5 5.8125 C2.16 5.8125 2.82 5.8125 3.5 5.8125 C3.17 7.1325 2.84 8.4525 2.5 9.8125 C0.5 7.8125 -1.5 5.8125 -3.5 3.8125 C-5.83297433 3.77157063 -8.16705225 3.77008277 -10.5 3.8125 C-10.5 2.8225 -10.5 1.8325 -10.5 0.8125 C-6.92206629 -0.33629734 -3.73180964 -0.22681871 0 0 Z " fill="#F06EB9" transform="translate(159.5,32.1875)"/>
<path d="M0 0 C3.465 1.98 3.465 1.98 7 4 C6.67 4.99 6.34 5.98 6 7 C6.39397335 9.63804589 6.39397335 9.63804589 7 12 C6.01 12.33 5.02 12.66 4 13 C4 12.34 4 11.68 4 11 C3.01 11 2.02 11 1 11 C-2.0653951 5.60490463 -2.0653951 5.60490463 -1.75 2.6875 C-1 1 -1 1 0 0 Z " fill="#FB65C4" transform="translate(182,85)"/>
<path d="M0 0 C1.61031868 3.22063736 0.06849117 5.68205372 -1 9 C-1.556875 10.2375 -1.556875 10.2375 -2.125 11.5 C-3.19958671 14.12879734 -3.19958671 14.12879734 -3 17.625 C-3 21 -3 21 -5 24 C-5.29991069 26.58885171 -5.50865225 29.09149082 -5.625 31.6875 C-5.68300781 32.7403418 -5.68300781 32.7403418 -5.7421875 33.81445312 C-5.8362334 35.54254655 -5.9191968 37.27123675 -6 39 C-6.66 39 -7.32 39 -8 39 C-8.83305318 26.16481033 -5.76720263 12.8750588 -1 1 C-0.67 0.67 -0.34 0.34 0 0 Z " fill="#E670B7" transform="translate(73,44)"/>
<path d="M0 0 C0.99 0.33 1.98 0.66 3 1 C5.14255793 0.61067144 5.14255793 0.61067144 7 0 C7 2.64 7 5.28 7 8 C6.01 8 5.02 8 4 8 C4 9.65 4 11.3 4 13 C3.01 12.67 2.02 12.34 1 12 C0.77213542 9.98177083 0.54427083 7.96354167 0.31640625 5.9453125 C0.08707039 3.92595684 0.08707039 3.92595684 -1 2 C-0.67 1.34 -0.34 0.68 0 0 Z " fill="#FC66C2" transform="translate(126,97)"/>
<path d="M0 0 C1.65 0.33 3.3 0.66 5 1 C4.79375 1.5775 4.5875 2.155 4.375 2.75 C3.91338739 5.51967567 4.57055055 6.64561267 6 9 C6.66 8.34 7.32 7.68 8 7 C8.99 7.66 9.98 8.32 11 9 C10.34 10.32 9.68 11.64 9 13 C5 13 5 13 2.75 11.3125 C0.70190785 8.60609252 0.63205236 7.31152874 1 4 C0.34 4 -0.32 4 -1 4 C-0.67 2.68 -0.34 1.36 0 0 Z " fill="#FC67C5" transform="translate(168,67)"/>
<path d="M0 0 C0.33 0 0.66 0 1 0 C1.05418326 2.08304538 1.09287551 4.16649768 1.125 6.25 C1.14820312 7.41015625 1.17140625 8.5703125 1.1953125 9.765625 C1.00872835 12.85545844 0.74838044 14.48707354 -1 17 C-5.8993394 19.38992166 -10.68050971 19.21277961 -16 19 C-16 18.67 -16 18.34 -16 18 C-14.93458984 17.80083984 -14.93458984 17.80083984 -13.84765625 17.59765625 C-12.92855469 17.42105469 -12.00945313 17.24445313 -11.0625 17.0625 C-10.14597656 16.88847656 -9.22945312 16.71445313 -8.28515625 16.53515625 C-6.04710156 16.22285012 -6.04710156 16.22285012 -5 15 C-5.71027344 14.95101562 -6.42054687 14.90203125 -7.15234375 14.8515625 C-8.07144531 14.77679688 -8.99054687 14.70203125 -9.9375 14.625 C-10.85402344 14.55539063 -11.77054688 14.48578125 -12.71484375 14.4140625 C-13.84599609 14.20910156 -13.84599609 14.20910156 -15 14 C-15.33 13.34 -15.66 12.68 -16 12 C-10.72 12 -5.44 12 0 12 C0 8.04 0 4.08 0 0 Z " fill="#E771BA" transform="translate(64,83)"/>
<path d="M0 0 C1.66611905 -0.042721 3.33382885 -0.04063832 5 0 C5.33 0.33 5.66 0.66 6 1 C8.01594582 1.23427778 10.038474 1.41336124 12.0625 1.5625 C13.16722656 1.64628906 14.27195312 1.73007813 15.41015625 1.81640625 C16.26480469 1.87699219 17.11945312 1.93757813 18 2 C15.47047712 5.15111212 13.23243734 5.58798017 9.3125 6.1875 C8.31863281 6.34605469 7.32476562 6.50460938 6.30078125 6.66796875 C5.54152344 6.77753906 4.78226563 6.88710937 4 7 C4 6.01 4 5.02 4 4 C3.01 4 2.02 4 1 4 C0.67 2.68 0.34 1.36 0 0 Z " fill="#FB65C2" transform="translate(43,95)"/>
<path d="M0 0 C1 3 2 6 3 9 C4.65 9 6.3 9 8 9 C6 11 6 11 4.0546875 11.1953125 C2.03645833 11.13020833 0.01822917 11.06510417 -2 11 C-2.66 7.7 -3.32 4.4 -4 1 C-2 0 -2 0 0 0 Z " fill="#FC62C6" transform="translate(157,137)"/>
<path d="M0 0 C2.31 0.33 4.62 0.66 7 1 C8.35384615 8.26153846 8.35384615 8.26153846 6.5625 12 C6.046875 12.66 5.53125 13.32 5 14 C5.99 14.33 6.98 14.66 8 15 C6.35 15.66 4.7 16.32 3 17 C3.33 15.35 3.66 13.7 4 12 C3.01 12.66 2.02 13.32 1 14 C-1.6875 14.125 -1.6875 14.125 -4 14 C-0.74147635 11.8276509 2.59244728 9.92880342 6 8 C6 7.01 6 6.02 6 5 C4.03852126 3.61061923 2.03833424 2.2739589 0 1 C0 0.67 0 0.34 0 0 Z " fill="#E773B7" transform="translate(46,123)"/>
<path d="M0 0 C0.33 0.66 0.66 1.32 1 2 C1.99 2.33 2.98 2.66 4 3 C3.34 3 2.68 3 2 3 C1.67 5.97 1.34 8.94 1 12 C0.67 12 0.34 12 0 12 C0 9.69 0 7.38 0 5 C-1.98 5.66 -3.96 6.32 -6 7 C-6 6.67 -6 6.34 -6 6 C-10.95 5.67 -15.9 5.34 -21 5 C-21 4.67 -21 4.34 -21 4 C-19.73542969 3.96261719 -18.47085938 3.92523438 -17.16796875 3.88671875 C-15.5077827 3.82106167 -13.84762778 3.75461424 -12.1875 3.6875 C-11.35412109 3.66494141 -10.52074219 3.64238281 -9.66210938 3.61914062 C-8.85966797 3.58369141 -8.05722656 3.54824219 -7.23046875 3.51171875 C-6.49207764 3.48553467 -5.75368652 3.45935059 -4.99291992 3.43237305 C-2.52833609 2.89767037 -1.59947676 1.90034653 0 0 Z " fill="#EF71BE" transform="translate(133,92)"/>
<path d="M0 0 C0.66 0.99 1.32 1.98 2 3 C1.01 4.485 1.01 4.485 0 6 C-0.66 6 -1.32 6 -2 6 C-1.67 6.99 -1.34 7.98 -1 9 C-3 11 -3 11 -5.625 11.125 C-6.40875 11.08375 -7.1925 11.0425 -8 11 C-7.49691315 7.27715732 -6.88896023 5.42672659 -4 3 C-3.34 2.34 -2.68 1.68 -2 1 C-1.34 0.67 -0.68 0.34 0 0 Z " fill="#F068BE" transform="translate(203,55)"/>
<path d="M0 0 C-1.2013082 3.60392459 -2.70140259 4.4000073 -5.9765625 6.14453125 C-11.93299737 8.66279233 -17.76361441 8.00227626 -24 7 C-24 6.67 -24 6.34 -24 6 C-22.87851563 5.92652344 -22.87851563 5.92652344 -21.734375 5.8515625 C-20.74953125 5.77679688 -19.7646875 5.70203125 -18.75 5.625 C-17.77546875 5.55539063 -16.8009375 5.48578125 -15.796875 5.4140625 C-13.05399447 5.00799359 -11.38386028 4.35650627 -9 3 C-2.30769231 0 -2.30769231 0 0 0 Z " fill="#DB6FAD" transform="translate(106,150)"/>
<path d="M0 0 C0.66 0 1.32 0 2 0 C2 1.32 2 2.64 2 4 C2.66 4 3.32 4 4 4 C4.625 6.375 4.625 6.375 5 9 C4.34 9.66 3.68 10.32 3 11 C0.9375 10.75 0.9375 10.75 -1 10 C-2.38125018 7.23749964 -2.19079306 5.05268901 -2 2 C-1.34 1.34 -0.68 0.68 0 0 Z " fill="#FD65C1" transform="translate(37,87)"/>
<path d="M0 0 C0.639375 0.845625 1.27875 1.69125 1.9375 2.5625 C-3.18833611 2.66501672 -8.01247778 2.59840199 -13.0625 1.5625 C-12.7325 0.5725 -12.4025 -0.4175 -12.0625 -1.4375 C-4.02748906 -3.20555252 -4.02748906 -3.20555252 0 0 Z " fill="#FB67C1" transform="translate(107.0625,117.4375)"/>
<path d="M0 0 C0.66 0 1.32 0 2 0 C2 0.99 2 1.98 2 3 C3.32 2.34 4.64 1.68 6 1 C5.67 1.886875 5.34 2.77375 5 3.6875 C3.83009859 6.85455168 3.83009859 6.85455168 4.1875 9.6875 C4.125625 10.450625 4.06375 11.21375 4 12 C1.5 13.8125 1.5 13.8125 -1 15 C-0.835 13.824375 -0.67 12.64875 -0.5 11.4375 C-0.01271488 7.58726127 0.08077957 3.87741927 0 0 Z " fill="#F16AB9" transform="translate(163,42)"/>
<path d="M0 0 C5.8449294 6.494366 9.8456474 14.20190187 10 23 C9.34 23.99 8.68 24.98 8 26 C7.96261719 25.43152344 7.92523438 24.86304687 7.88671875 24.27734375 C7.31369781 17.5471566 5.68695003 12.45812718 1.8125 6.8125 C0 4 0 4 0 0 Z " fill="#E772B5" transform="translate(197,102)"/>
<path d="M0 0 C2.31 0.33 4.62 0.66 7 1 C7.33 2.65 7.66 4.3 8 6 C6.35 6.66 4.7 7.32 3 8 C0.9375 5.6875 0.9375 5.6875 -1 3 C-0.67 2.01 -0.34 1.02 0 0 Z " fill="#FC66C2" transform="translate(139,148)"/>
<path d="M0 0 C3.37462715 0.54723683 5.08235 1.0549 8 3 C7.01 3.495 7.01 3.495 6 4 C6.33 5.98 6.66 7.96 7 10 C5.948125 9.566875 5.948125 9.566875 4.875 9.125 C1.94547497 7.97866412 -1.00921653 6.97374346 -4 6 C-4 5.67 -4 5.34 -4 5 C-0.535 4.505 -0.535 4.505 3 4 C2.01 2.68 1.02 1.36 0 0 Z " fill="#EA74BB" transform="translate(105,115)"/>
<path d="M0 0 C3 1 6 2 9 3 C9.33 5.31 9.66 7.62 10 10 C6.54804233 8.5741914 4.8985744 6.90253666 2.75 3.875 C1.96882813 2.78832031 1.96882813 2.78832031 1.171875 1.6796875 C0.78515625 1.12539062 0.3984375 0.57109375 0 0 Z " fill="#F56ABC" transform="translate(66,143)"/>
<path d="M0 0 C0.99 0.33 1.98 0.66 3 1 C3.33 2.98 3.66 4.96 4 7 C3.01 6.67 2.02 6.34 1 6 C1 4.68 1 3.36 1 2 C-2.31460705 3.70892499 -2.31460705 3.70892499 -2.6875 7.125 C-2.790625 8.07375 -2.89375 9.0225 -3 10 C-2.34 10.33 -1.68 10.66 -1 11 C-1 11.66 -1 12.32 -1 13 C-1.66 13 -2.32 13 -3 13 C-5.33043558 9.50434664 -5.58763244 8.1134271 -5 4 C-2.6875 1.5625 -2.6875 1.5625 0 0 Z " fill="#E074B3" transform="translate(38,85)"/>
<path d="M0 0 C0.33 0.66 0.66 1.32 1 2 C1.99 2 2.98 2 4 2 C5.02506046 4.93850666 5.95454338 7.74430649 6.5 10.8125 C6.665 11.534375 6.83 12.25625 7 13 C7.66 13.33 8.32 13.66 9 14 C8.67 15.65 8.34 17.3 8 19 C7.73445312 18.46503906 7.46890625 17.93007812 7.1953125 17.37890625 C6.30637706 15.60975043 5.4030317 13.84782025 4.4921875 12.08984375 C3.69167969 10.52943359 3.69167969 10.52943359 2.875 8.9375 C2.33617187 7.89464844 1.79734375 6.85179688 1.2421875 5.77734375 C0 3 0 3 0 0 Z " fill="#EA76BB" transform="translate(190,105)"/>
<path d="M0 0 C0.33 0 0.66 0 1 0 C1.12117188 0.66386719 1.24234375 1.32773438 1.3671875 2.01171875 C2.22547708 6.53424459 3.03971311 10.79938524 5 15 C1.83884224 13.63016497 1.0072908 13.0109362 -1 10 C-1.19850603 6.29455413 -1.17664871 3.52994613 0 0 Z " fill="#E270B0" transform="translate(18,126)"/>
<path d="M0 0 C1.32 0.33 2.64 0.66 4 1 C3.8125 3.8125 3.8125 3.8125 3 7 C0.4375 8.875 0.4375 8.875 -2 10 C-1.33333333 6.66666667 -0.66666667 3.33333333 0 0 Z " fill="#FC65C2" transform="translate(152,124)"/>
<path d="M0 0 C0.33 0.99 0.66 1.98 1 3 C1.66 3.66 2.32 4.32 3 5 C1.35 6.32 -0.3 7.64 -2 9 C-2.33 8.34 -2.66 7.68 -3 7 C-2.34 7 -1.68 7 -1 7 C-1 6.01 -1 5.02 -1 4 C-1.598125 4.515625 -2.19625 5.03125 -2.8125 5.5625 C-3.534375 6.036875 -4.25625 6.51125 -5 7 C-5.99 6.67 -6.98 6.34 -8 6 C-5.36 4.02 -2.72 2.04 0 0 Z " fill="#E673B3" transform="translate(83,82)"/>
<path d="M0 0 C0.06058594 0.62648438 0.12117188 1.25296875 0.18359375 1.8984375 C0.26738281 2.71570313 0.35117187 3.53296875 0.4375 4.375 C0.51871094 5.18710938 0.59992187 5.99921875 0.68359375 6.8359375 C0.89090114 9.04272805 0.89090114 9.04272805 2 11 C0.0625 10.625 0.0625 10.625 -2 10 C-3.4783226 7.04335481 -3.06032783 4.25770263 -3 1 C-1 0 -1 0 0 0 Z " fill="#EE6AB4" transform="translate(26,124)"/>
<path d="M0 0 C0.33 1.32 0.66 2.64 1 4 C-2.3 4 -5.6 4 -9 4 C-9 3.01 -9 2.02 -9 1 C-5.92677456 0.08941469 -3.19902639 -0.08886184 0 0 Z " fill="#FB67C1" transform="translate(158,32)"/>
<path d="M0 0 C0.5625 1.9375 0.5625 1.9375 1 4 C0.67 4.33 0.34 4.66 0 5 C-0.23287008 6.68183948 -0.41264166 8.3712416 -0.5625 10.0625 C-0.68818359 11.44115234 -0.68818359 11.44115234 -0.81640625 12.84765625 C-0.87699219 13.55792969 -0.93757812 14.26820313 -1 15 C-3 13 -3 13 -3.3125 9.75 C-2.98188343 5.78260112 -1.9941069 3.40659929 0 0 Z " fill="#EB74B8" transform="translate(151,125)"/>
<path d="M0 0 C1.32 0 2.64 0 4 0 C4 0.99 4 1.98 4 3 C3.01 3 2.02 3 1 3 C1 4.32 1 5.64 1 7 C-0.32 7 -1.64 7 -3 7 C-1.125 1.125 -1.125 1.125 0 0 Z " fill="#F669BE" transform="translate(148,80)"/>
<path d="M0 0 C1.98 0.495 1.98 0.495 4 1 C4.95024979 4.69541586 4.95024979 7.30458414 4 11 C3.67 11 3.34 11 3 11 C2.71125 10.030625 2.4225 9.06125 2.125 8.0625 C1.35785318 4.89335797 1.35785318 4.89335797 -1 4 C-0.67 2.68 -0.34 1.36 0 0 Z " fill="#F770C3" transform="translate(72,52)"/>
<path d="M0 0 C0.66 0 1.32 0 2 0 C2 1.32 2 2.64 2 4 C1.34 4 0.68 4 0 4 C0.33 4.99 0.66 5.98 1 7 C0.01 7.33 -0.98 7.66 -2 8 C-2 8.99 -2 9.98 -2 11 C-2.66 11 -3.32 11 -4 11 C-2.7874262 7.27566618 -1.49140021 3.62197194 0 0 Z " fill="#E971B6" transform="translate(161,58)"/>
<path d="M0 0 C1 2 1 2 0.22265625 4.8203125 C-0.16019531 5.91085938 -0.54304688 7.00140625 -0.9375 8.125 C-1.31777344 9.22070312 -1.69804688 10.31640625 -2.08984375 11.4453125 C-2.39019531 12.28835937 -2.69054687 13.13140625 -3 14 C-4.078125 12.15234375 -4.078125 12.15234375 -5 10 C-3.75 7.5625 -3.75 7.5625 -2 5 C-1.30177383 3.34630643 -0.62501395 1.68272986 0 0 Z " fill="#E673B9" transform="translate(80,43)"/>
<path d="M0 0 C0.78375 0.04125 1.5675 0.0825 2.375 0.125 C1.385 0.62 1.385 0.62 0.375 1.125 C-0.27713292 3.14963255 -0.27713292 3.14963255 -0.625 5.125 C-1.615 5.125 -2.605 5.125 -3.625 5.125 C-3.955 4.135 -4.285 3.145 -4.625 2.125 C-2.625 0.125 -2.625 0.125 0 0 Z " fill="#F176BF" transform="translate(161.625,115.875)"/>
<path d="M0 0 C0.99 0.33 1.98 0.66 3 1 C0.47211993 3.79872437 -1.20411134 5.45773019 -5 6 C-3.63016497 2.83884224 -3.0109362 2.0072908 0 0 Z " fill="#E66DB7" transform="translate(165,151)"/>
<path d="M0 0 C0.66 0.33 1.32 0.66 2 1 C0.375 3 0.375 3 -2 5 C-5.25 5.25 -5.25 5.25 -8 5 C-2.6 1.4 -2.6 1.4 0 0 Z " fill="#E576BA" transform="translate(113,132)"/>
<path d="M0 0 C0 0.66 0 1.32 0 2 C-5.41538462 2.36923077 -5.41538462 2.36923077 -8.375 0.5 C-8.91125 0.005 -9.4475 -0.49 -10 -1 C-6.06329512 -2.31223496 -3.87511856 -1.24296256 0 0 Z " fill="#E66DB5" transform="translate(47,99)"/>
<path d="M0 0 C0.66 0 1.32 0 2 0 C2 1.32 2 2.64 2 4 C1.34 4 0.68 4 0 4 C0 4.99 0 5.98 0 7 C-0.99 6.67 -1.98 6.34 -3 6 C-1.125 1.125 -1.125 1.125 0 0 Z " fill="#F861C7" transform="translate(86,79)"/>
<path d="M0 0 C0 0.66 0 1.32 0 2 C0.99 2.33 1.98 2.66 3 3 C1 4 1 4 -0.9453125 3.44140625 C-1.66460938 3.15136719 -2.38390625 2.86132812 -3.125 2.5625 C-3.84945313 2.27503906 -4.57390625 1.98757812 -5.3203125 1.69140625 C-6.15175781 1.34916016 -6.15175781 1.34916016 -7 1 C-7 0.67 -7 0.34 -7 0 C-2.25 -1.125 -2.25 -1.125 0 0 Z " fill="#E470B1" transform="translate(30,141)"/>
<path d="M0 0 C2.375 0.625 2.375 0.625 5 2 C6.3125 5.125 6.3125 5.125 7 8 C4.35247996 5.42215154 2.05567935 3.08351902 0 0 Z " fill="#E472B5" transform="translate(66,143)"/>
<path d="M0 0 C0.33 0 0.66 0 1 0 C1.99 3.3 2.98 6.6 4 10 C2.68 9.34 1.36 8.68 0 8 C0 5.36 0 2.72 0 0 Z " fill="#EF6CB6" transform="translate(19,131)"/>
<path d="M0 0 C1.32 0.66 2.64 1.32 4 2 C2.35 3.65 0.7 5.3 -1 7 C-1.33 6.34 -1.66 5.68 -2 5 C-1.34 5 -0.68 5 0 5 C0 3.35 0 1.7 0 0 Z " fill="#E870BA" transform="translate(95,72)"/>
<path d="M0 0 C0.66 1.32 1.32 2.64 2 4 C0.75 6.75 0.75 6.75 -1 9 C-1.66 9 -2.32 9 -3 9 C-2.01 6.03 -1.02 3.06 0 0 Z " fill="#E770B7" transform="translate(99,56)"/>
<path d="M0 0 C0.33 0.99 0.66 1.98 1 3 C0.34 3.66 -0.32 4.32 -1 5 C-3.125 4.625 -3.125 4.625 -5 4 C-5 3.01 -5 2.02 -5 1 C-3.35 0.67 -1.7 0.34 0 0 Z " fill="#FA62C4" transform="translate(143,39)"/>
</svg>
